<?xml version="1.0" ?><!DOCTYPE svg  PUBLIC '-//W3C//DTD SVG 1.1//EN'  'http://www.w3.org/Graphics/SVG/1.1/DTD/svg11.dtd'><svg enable-background="new 0 0 24 24" height="24px" id="Layer_1" version="1.1" viewBox="0 0 24 24" width="24px" xml:space="preserve" xmlns="http://www.w3.org/2000/svg" xmlns:xlink="http://www.w3.org/1999/xlink"><path d="M17.2,0.4C16.9,0,16,0,16,0H8c0,0-0.9-0.1-1.2,0.3C6.4,0.8,6.7,1.4,6.7,1.4l2.1,4.4L6,18.4l5,5.1c0,0,0.4,0.5,1,0.5  s1-0.5,1-0.5l5-5.1L15.2,5.8l2.1-4.4C17.3,1.4,17.6,0.8,17.2,0.4z M14.8,2l-1.4,3h-2.7L9.2,2H14.8z M12,21.9l-4-4.1L10.7,6h2.7  l2.7,11.8L12,21.9z"/></svg>